<svg width="100%" height="100%" viewBox="0 0 512 512" fill="none" xmlns="http://www.w3.org/2000/svg">
    <!-- The Database Server Stack (Neutral Grey) -->
    <g id="database-stack" fill="#6B7280">
        <ellipse cx="285" cy="120" rx="140" ry="45"/>
        <path d="M425 120V190C425 214.853 362.32 235 285 235C207.68 235 145 214.853 145 190V120C145 144.853 207.68 165 285 165C362.32 165 425 144.853 425 120Z"/>
        <path d="M425 220V290C425 314.853 362.32 335 285 335C207.68 335 145 314.853 145 290V220C145 244.853 207.68 265 285 265C362.32 265 425 244.853 425 220Z"/>
        <path d="M425 320V390C425 414.853 362.32 435 285 435C207.68 435 145 414.853 145 390V320C145 344.853 207.68 365 285 365C362.32 365 425 344.853 425 320Z"/>
    </g>

    <!-- The Well-Formed Gecko (Light Green) -->
    <g id="gecko-body" fill="#4ADE80">
        <!-- Head and Body -->
        <path d="M180.5 70C155.4 70 135 90.4 135 115.5C135 133.6 145.6 149.2 160.8 156.7L155 250C151.5 310 130 350 90 380C68.5 396.1 72 430 100 435C153.8 444.6 239.7 472.4 342 439C365.6 431.3 361.8 400.4 337.6 400.4C243.7 400.4 195 365.9 195 322.6V160.5C209.3 152.6 219 136.4 219 117.5C219 91.3 201.8 70 180.5 70Z"/>
        <!-- Front Left Arm -->
        <path d="M135 130C115 130 85 110 75 90C68.3 76.6 50 80 50 95C50 110 65 135 85 150C105 165 130 160 135 155"/>
        <!-- Front Right Arm -->
        <path d="M219 130C239 130 269 110 279 90C285.7 76.6 304 80 304 95C304 110 289 135 269 150C249 165 224 160 219 155"/>
        <!-- Back Left Leg -->
        <path d="M155 270C130 280 90 275 70 260C55 248.7 40 265 55 285C70 305 100 320 130 315C160 310 160 285 155 280"/>
        <!-- Back Right Leg -->
        <path d="M195 270C220 280 260 275 280 260C295 248.7 310 265 295 285C280 305 250 320 220 315C190 310 190 285 195 280"/>
    </g>
</svg>
